# xmcd
#
# Track frame offsets: 
#        150
#        12417
#        26154
#        40044
#        55956
#        68388
#        88885
#        108393
#        122684
#        138400
#        157159
#        170836
#        188773
#        205593
#        219731
#        234033
#        249648
#        265266
#
# Disc length: 3703 seconds
#
# Revision: 0
# Processed by: cddbd v1.5.2PL0 Copyright (c) Steve Scherf et al.
# Submitted via: ExactAudioCopy v1.0b1
#
DISCID=fd0e7512
DTITLE=Lauku muzikanti - Vienreiz pa īstam
DYEAR=1998
DGENRE=Country
TTITLE0=Studentu dziesma
TTITLE1=Marina
TTITLE2=Ai, vasara
TTITLE3=Meitene zeltene
TTITLE4=Mana neveiksminiece
TTITLE5=Par vēlu, draugs
TTITLE6=Vieni
TTITLE7=Varbūt
TTITLE8=Zīlīte
TTITLE9=Neticu, ka tā var izgaist mīla
TTITLE10=Vaidava
TTITLE11=Draugs nejautā
TTITLE12=Vēl viens dolārs
TTITLE13=Šovakar
TTITLE14=Vīru dziesma
TTITLE15=Putra
TTITLE16=Karnevāls
TTITLE17=Kommā, tikai kommā
EXTD=
EXTT0=
EXTT1=
EXTT2=
EXTT3=
EXTT4=
EXTT5=
EXTT6=
EXTT7=
EXTT8=
EXTT9=
EXTT10=
EXTT11=
EXTT12=
EXTT13=
EXTT14=
EXTT15=
EXTT16=
EXTT17=
PLAYORDER=
